PathFileType	4	(X/Y/Z)	E:\Qualisys_Data\Carbon_Farble_Plate\Data\Amateur_Runner\S2\T1\S2T1V13_c3d.trc
DataRate	CameraRate	NumFrames	NumMarkers	Units	OrigDataRate	OrigDataStartFrame	OrigNumFrames
200.000000	200.000000	4	39	mm	200.000000	154	308
Frame#	Time	LSHO			RSHO			LICST			RICST			LASIS			LHEEL			RASIS			LTROC			RTROC			SACR			LTH1			LSK4			LTH2			LTH3			RHM5			LSK2			LTH4			RTH1			LTOE			RTH2			RTH3			RTH4			LLEP			RLEP			LSK1			LSK3			RSK1			LHM5			RSK2			LFT1			RSK3			RSK4			LLME			RLME			RTOE			RHEEL			RFT1			RFT2			LFT2			
		X1	Y1	Z1	X2	Y2	Z2	X3	Y3	Z3	X4	Y4	Z4	X5	Y5	Z5	X6	Y6	Z6	X7	Y7	Z7	X8	Y8	Z8	X9	Y9	Z9	X10	Y10	Z10	X11	Y11	Z11	X12	Y12	Z12	X13	Y13	Z13	X14	Y14	Z14	X15	Y15	Z15	X16	Y16	Z16	X17	Y17	Z17	X18	Y18	Z18	X19	Y19	Z19	X20	Y20	Z20	X21	Y21	Z21	X22	Y22	Z22	X23	Y23	Z23	X24	Y24	Z24	X25	Y25	Z25	X26	Y26	Z26	X27	Y27	Z27	X28	Y28	Z28	X29	Y29	Z29	X30	Y30	Z30	X31	Y31	Z31	X32	Y32	Z32	X33	Y33	Z33	X34	Y34	Z34	X35	Y35	Z35	X36	Y36	Z36	X37	Y37	Z37	X38	Y38	Z38	X39	Y39	Z39	

155	0.77	380.3922424316406	1482.5947265625	-442.0859069824219	336.7554016113281	1463.89013671875	-139.6890563964844	306.6502380371094	1024.83642578125	-439.52783203125	311.4056701660156	1009.147766113281	-141.7569122314453	357.4921569824219	970.7086791992188	-427.2911071777344	-213.7538604736328	426.9356689453125	-341.0351867675781	367.2789611816406	963.0154418945312	-172.2176361083984	211.6792602539062	921.680908203125	-445.1538391113281	231.7902069091797	900.7925415039062	-133.8844146728516	212.9801788330078	1061.4697265625	-293.0762634277344	259.6886901855469	664.0636596679688	-456.23388671875	-67.66703796386719	486.5967102050781	-430.9240417480469	180.4773101806641	688.205078125	-457.43017578125	228.4296722412109	566.1176147460938	-444.7546691894531	622.59228515625	125.985725402832	-150.9998321533203	22.79254531860352	526.2728881835938	-448.3610534667969	148.4386291503906	594.2733154296875	-435.351318359375	432.7401733398438	661.2196655273438	-125.2270736694336	-232.815185546875	186.4694671630859	-382.574951171875	356.7754821777344	635.5737915039062	-117.9479522705078	458.9991455078125	568.6600341796875	-160.4008331298828	381.6788940429688	546.4627075195312	-150.2789611816406	160.4529266357422	538.3649291992188	-444.403564453125	423.748779296875	525.201904296875	-149.5037231445312	53.29467010498047	452.2652893066406	-450.9229736328125	-38.93739318847656	414.5608520507812	-440.4410400390625	477.928955078125	414.0140380859375	-150.4730072021484	-264.1851806640625	244.7654266357422	-433.9069519042969	399.7325744628906	401.1816711425781	-137.8928070068359	-230.4302673339844	410.0261840820312	-309.1585693359375	493.3453369140625	313.3663635253906	-161.5975952148438	415.2208862304688	303.8826904296875	-151.4779968261719	-212.9150390625	377.0235290527344	-405.0265197753906	489.4300842285156	120.5978317260742	-186.4736022949219	667.7879638671875	169.5431213378906	-210.3766632080078	440.4785766601562	83.07337188720703	-245.3705444335938	466.8905334472656	65.65293884277344	-275.4850769042969	451.2072448730469	56.02398681640625	-220.7760162353516	-245.4184875488281	429.219970703125	-358.3479919433594
156	0.775	396.9878540039062	1478.703002929688	-441.0045776367188	353.31591796875	1459.287231445312	-138.2542877197266	323.5722045898438	1021.136047363281	-439.148193359375	327.1422119140625	1005.537780761719	-141.2714385986328	374.6690979003906	967.1143188476562	-426.628662109375	-192.6387481689453	431.7619934082031	-339.4002990722656	383.5978088378906	959.6575927734376	-171.0948028564453	229.3332061767578	917.6174926757812	-445.3990173339844	247.6237640380859	896.6619873046875	-133.9201965332031	229.6007843017578	1057.376831054688	-292.8577270507812	279.6503295898438	659.9122314453125	-457.0210876464844	-46.52711868286133	487.14404296875	-430.2062377929688	199.9970855712891	682.8301391601562	-457.4461364746094	249.63916015625	561.201416015625	-445.83447265625	634.1949462890625	120.3325805664062	-151.6237335205078	45.1641731262207	524.1903686523438	-448.3489990234375	169.2857818603516	588.1370849609375	-435.1654968261719	450.26904296875	658.7556762695312	-125.0335006713867	-219.4742126464844	192.7548522949219	-382.9495239257812	374.3574829101562	633.0170288085938	-118.9761581420898	476.7432250976562	566.2555541992188	-161.3933258056641	399.655517578125	544.1334838867188	-151.0882873535156	182.2999420166016	532.677978515625	-445.697021484375	441.6226806640625	521.67333984375	-150.4570007324219	73.43402862548828	449.6231994628906	-451.5100402832031	-19.74594116210938	414.0208435058594	-440.2755432128906	494.2388305664062	409.6709899902344	-151.4793853759766	-249.3853149414062	252.1358032226562	-433.7113342285156	416.1782531738281	397.6026611328125	-137.9929656982422	-210.275390625	415.2936401367188	-307.8760375976562	508.3235473632812	308.5790710449219	-162.4495239257812	429.9378967285156	300.3186340332031	-151.2570190429688	-194.3474426269531	382.6664733886719	-403.6525268554688	501.2018432617188	116.2416076660156	-186.8033752441406	679.3033447265625	163.3309936523438	-211.097900390625	451.4853210449219	78.8979263305664	-245.6974945068359	477.7555847167969	61.42997360229492	-276.1177368164062	462.2014770507812	51.1185417175293	-221.1516723632812	-224.9212493896484	435.1758422851562	-356.242919921875
157	0.78	413.404296875	1474.656494140625	-439.9908142089844	369.8368530273438	1454.445678710938	-137.1247406005859	340.5711059570312	1017.022888183594	-438.8127746582031	341.9828186035156	1001.705749511719	-141.3979339599609	391.6734008789062	963.1065673828124	-425.635498046875	-171.3211212158203	436.4139404296875	-337.7635192871094	399.5469665527344	956.12646484375	-170.0362854003906	246.9443206787109	913.01318359375	-446.1064453125	263.7027893066406	892.8364868164062	-133.7474975585938	245.9877777099609	1053.119995117188	-293.1014099121094	299.3601379394531	654.8370971679688	-457.8008728027344	-24.53459548950195	487.6761169433594	-429.7627563476562	219.6807098388672	676.437255859375	-457.9503479003906	271.0982055664062	556.0428466796875	-447.0209045410156	644.5233154296875	114.5745620727539	-152.404052734375	68.13361358642578	521.6265258789062	-448.3893127441406	190.5999755859375	581.6715087890625	-435.8701171875	468.2171020507812	656.2333984375	-125.6826400756836	-205.5753784179688	198.7122497558594	-383.611572265625	392.3883972167969	630.5894165039062	-120.7734527587891	494.6217346191406	564.0585327148438	-162.5555419921875	417.6108093261719	541.77197265625	-151.7035064697266	203.9226837158203	526.88720703125	-446.5668334960938	459.230224609375	518.5608520507812	-150.9821624755859	94.01141357421876	446.7621765136719	-452.2271118164062	0.0661848708987236	413.5633850097656	-439.770751953125	510.2384643554688	404.8765258789062	-152.047607421875	-233.7761077880859	259.6104125976562	-433.4290771484375	431.9761352539062	394.2389831542969	-138.0987243652344	-189.1553649902344	420.2945251464844	-305.7315979003906	522.376220703125	303.6242065429688	-163.2060089111328	444.1544494628906	296.66259765625	-151.0184173583984	-175.1017913818359	388.0537719726562	-402.2132873535156	511.8614807128906	111.3689041137695	-187.1612243652344	690.3587036132812	156.8674011230469	-211.8810272216797	461.5212097167969	74.46312713623047	-245.9349822998047	487.4048156738281	56.90658187866211	-276.2369689941406	471.115234375	48.31003570556641	-221.0735321044922	-203.2855377197266	440.8611755371094	-354.5770263671875
158	0.785	430.0401000976562	1470.419311523438	-439.0227355957031	386.3886413574219	1449.410766601562	-135.9922637939453	357.8537292480469	1012.501159667969	-438.3693237304688	357.9483947753906	997.7387084960938	-140.8065948486328	408.8292846679688	959.0584716796876	-425.1714782714844	-149.4118194580078	440.2343139648438	-336.40869140625	415.613525390625	952.3463134765624	-169.2914123535156	264.5870361328125	908.0391235351562	-446.2366333007812	279.8203125	888.6746826171875	-133.2944946289062	262.4989624023438	1048.858032226562	-292.5682373046875	319.5899658203125	649.844482421875	-458.4527282714844	-2.604721307754517	487.5994567871094	-428.8895568847656	239.6198272705078	670.6563110351562	-458.0767211914062	292.8826293945312	550.520263671875	-448.5044860839844	654.4427490234375	108.0621032714844	-153.1734771728516	90.91845703125	518.7181396484375	-448.6904602050781	212.1729431152344	574.7371826171875	-436.3092346191406	485.7364807128906	653.6099853515625	-126.5295104980469	-190.5277099609375	204.3372650146484	-384.0130004882812	409.666259765625	629.1976928710938	-123.0781707763672	512.4873046875	561.634521484375	-162.6965789794922	435.6437072753906	539.5213012695312	-152.3106536865234	226.3759765625	520.567138671875	-448.0082397460938	476.2041015625	515.649658203125	-152.7187347412109	115.14453125	443.288818359375	-452.5692138671875	20.19099998474121	412.7259826660156	-439.6765441894531	526.1339721679688	399.9072265625	-152.9638671875	-217.1627197265625	266.8077697753906	-433.2098693847656	447.6768798828125	390.7669982910156	-138.4591369628906	-167.6022033691406	424.7453918457031	-304.0345764160156	536.184814453125	298.1028137207031	-164.1884307861328	457.716064453125	292.5771179199219	-151.4823913574219	-155.2584991455078	393.2495422363281	-400.9532165527344	521.7238159179688	106.4147872924805	-187.2569427490234	700.29248046875	149.430419921875	-212.8451538085938	471.2384338378906	70.73606872558594	-246.3159637451172	495.9486389160156	52.76789474487305	-276.7395629882812	479.6281127929688	44.67150115966797	-221.4764556884766	-181.4523010253906	446.05224609375	-352.9179077148438
